<mxfile host="app.diagrams.net" modified="2024-07-14T12:24:22.890Z" agent="Mozilla/5.0 (Windows NT 10.0; Win64; x64) AppleWebKit/537.36 (KHTML, like Gecko) Chrome/126.0.0.0 Safari/537.36" etag="yxIZ_1o9IYocjJpUtKvE" border="50" scale="3" compressed="false" locked="false" version="24.6.5" type="github">
  <diagram name="DevOps Project Architecture" id="YmL12bMKpDGza6XwsDPr">
    <mxGraphModel dx="2388" dy="1708" grid="0" gridSize="10" guides="1" tooltips="1" connect="1" arrows="1" fold="1" page="0" pageScale="1" pageWidth="827" pageHeight="1169" background="none" math="1" shadow="0">
      <root>
        <mxCell id="X5NqExCQtvZxIxQ7pmgY-0" />
        <mxCell id="1" parent="X5NqExCQtvZxIxQ7pmgY-0" />
        <mxCell id="ph_Hx_0I56IZvdiPEwpl-5" value="" style="edgeStyle=orthogonalEdgeStyle;rounded=0;orthogonalLoop=1;jettySize=auto;html=1;" edge="1" parent="1" source="ph_Hx_0I56IZvdiPEwpl-1" target="ph_Hx_0I56IZvdiPEwpl-4">
          <mxGeometry relative="1" as="geometry" />
        </mxCell>
        <object label="" placeholders="1" Users="User" id="ph_Hx_0I56IZvdiPEwpl-1">
          <mxCell style="image;html=1;image=img/lib/clip_art/computers/Laptop_128x128.png" vertex="1" parent="1">
            <mxGeometry x="-723" y="-421" width="80" height="80" as="geometry" />
          </mxCell>
        </object>
        <mxCell id="ph_Hx_0I56IZvdiPEwpl-3" value="&lt;b&gt;User&lt;/b&gt;" style="text;strokeColor=none;align=center;fillColor=none;html=1;verticalAlign=middle;whiteSpace=wrap;rounded=0;" vertex="1" parent="1">
          <mxGeometry x="-713" y="-341" width="60" height="30" as="geometry" />
        </mxCell>
        <mxCell id="ph_Hx_0I56IZvdiPEwpl-7" value="" style="edgeStyle=orthogonalEdgeStyle;rounded=0;orthogonalLoop=1;jettySize=auto;html=1;" edge="1" parent="1" source="ph_Hx_0I56IZvdiPEwpl-4" target="ph_Hx_0I56IZvdiPEwpl-6">
          <mxGeometry relative="1" as="geometry" />
        </mxCell>
        <mxCell id="ph_Hx_0I56IZvdiPEwpl-4" value="" style="image;sketch=0;aspect=fixed;html=1;points=[];align=center;fontSize=12;image=img/lib/mscae/Load_Balancer_feature.svg;" vertex="1" parent="1">
          <mxGeometry x="-538" y="-406" width="50" height="50" as="geometry" />
        </mxCell>
        <mxCell id="ph_Hx_0I56IZvdiPEwpl-14" value="" style="edgeStyle=orthogonalEdgeStyle;rounded=0;orthogonalLoop=1;jettySize=auto;html=1;" edge="1" parent="1" source="ph_Hx_0I56IZvdiPEwpl-6">
          <mxGeometry relative="1" as="geometry">
            <mxPoint x="-260" y="-381" as="targetPoint" />
          </mxGeometry>
        </mxCell>
        <mxCell id="ph_Hx_0I56IZvdiPEwpl-6" value="" style="whiteSpace=wrap;html=1;verticalAlign=top;labelBackgroundColor=default;sketch=0;" vertex="1" parent="1">
          <mxGeometry x="-443" y="-471" width="103" height="180" as="geometry" />
        </mxCell>
        <mxCell id="ph_Hx_0I56IZvdiPEwpl-8" value="" style="rhombus;whiteSpace=wrap;html=1;" vertex="1" parent="1">
          <mxGeometry x="-410.5" y="-460" width="38" height="36" as="geometry" />
        </mxCell>
        <mxCell id="ph_Hx_0I56IZvdiPEwpl-9" value="" style="rhombus;whiteSpace=wrap;html=1;" vertex="1" parent="1">
          <mxGeometry x="-410.5" y="-341" width="38" height="36" as="geometry" />
        </mxCell>
        <mxCell id="ph_Hx_0I56IZvdiPEwpl-10" value="N" style="text;strokeColor=none;align=center;fillColor=none;html=1;verticalAlign=middle;whiteSpace=wrap;rounded=0;" vertex="1" parent="1">
          <mxGeometry x="-421.5" y="-457" width="60" height="30" as="geometry" />
        </mxCell>
        <mxCell id="ph_Hx_0I56IZvdiPEwpl-11" value="N" style="text;strokeColor=none;align=center;fillColor=none;html=1;verticalAlign=middle;whiteSpace=wrap;rounded=0;" vertex="1" parent="1">
          <mxGeometry x="-421.5" y="-338" width="60" height="30" as="geometry" />
        </mxCell>
        <mxCell id="ph_Hx_0I56IZvdiPEwpl-12" value="&lt;b&gt;NGINX&lt;/b&gt;" style="text;strokeColor=none;align=center;fillColor=none;html=1;verticalAlign=middle;whiteSpace=wrap;rounded=0;" vertex="1" parent="1">
          <mxGeometry x="-421.5" y="-396" width="60" height="30" as="geometry" />
        </mxCell>
        <mxCell id="ph_Hx_0I56IZvdiPEwpl-15" value="" style="image;html=1;image=img/lib/clip_art/computers/Server_128x128.png" vertex="1" parent="1">
          <mxGeometry x="-253" y="-421" width="80" height="80" as="geometry" />
        </mxCell>
        <mxCell id="ph_Hx_0I56IZvdiPEwpl-16" value="&lt;b&gt;Apache Tomcat Server&lt;/b&gt;" style="text;strokeColor=none;align=center;fillColor=none;html=1;verticalAlign=middle;whiteSpace=wrap;rounded=0;" vertex="1" parent="1">
          <mxGeometry x="-213" y="-356" width="76" height="39" as="geometry" />
        </mxCell>
        <mxCell id="ph_Hx_0I56IZvdiPEwpl-18" value="" style="edgeStyle=orthogonalEdgeStyle;rounded=0;orthogonalLoop=1;jettySize=auto;html=1;" edge="1" parent="1" source="ph_Hx_0I56IZvdiPEwpl-17" target="ph_Hx_0I56IZvdiPEwpl-15">
          <mxGeometry relative="1" as="geometry" />
        </mxCell>
        <mxCell id="ph_Hx_0I56IZvdiPEwpl-17" value="" style="shape=image;html=1;verticalAlign=top;verticalLabelPosition=bottom;labelBackgroundColor=#ffffff;imageAspect=0;aspect=fixed;image=https://cdn4.iconfinder.com/data/icons/dellios_system_icons/png_128/network.png" vertex="1" parent="1">
          <mxGeometry x="-90" y="-432" width="102" height="102" as="geometry" />
        </mxCell>
        <mxCell id="ph_Hx_0I56IZvdiPEwpl-19" value="&lt;b&gt;Network File System&lt;/b&gt;" style="text;strokeColor=none;align=center;fillColor=none;html=1;verticalAlign=middle;whiteSpace=wrap;rounded=0;" vertex="1" parent="1">
          <mxGeometry x="-87" y="-341" width="105" height="30" as="geometry" />
        </mxCell>
        <mxCell id="ph_Hx_0I56IZvdiPEwpl-46" style="edgeStyle=orthogonalEdgeStyle;rounded=0;orthogonalLoop=1;jettySize=auto;html=1;" edge="1" parent="1" source="ph_Hx_0I56IZvdiPEwpl-20" target="ph_Hx_0I56IZvdiPEwpl-15">
          <mxGeometry relative="1" as="geometry" />
        </mxCell>
        <mxCell id="ph_Hx_0I56IZvdiPEwpl-20" value="" style="strokeWidth=2;dashed=0;align=center;fontSize=8;shape=rect;fillColor=#fffbc0;strokeColor=#000000;" vertex="1" parent="1">
          <mxGeometry x="-144" y="-157" width="26" height="18" as="geometry" />
        </mxCell>
        <mxCell id="ph_Hx_0I56IZvdiPEwpl-21" value="" style="strokeWidth=2;dashed=0;align=center;fontSize=8;shape=rect;fillColor=#fffbc0;strokeColor=#000000;" vertex="1" parent="1">
          <mxGeometry x="-191" y="-139" width="26" height="18" as="geometry" />
        </mxCell>
        <mxCell id="ph_Hx_0I56IZvdiPEwpl-22" value="" style="strokeWidth=2;dashed=0;align=center;fontSize=8;shape=rect;fillColor=#fffbc0;strokeColor=#000000;" vertex="1" parent="1">
          <mxGeometry x="-97" y="-139" width="26" height="18" as="geometry" />
        </mxCell>
        <mxCell id="ph_Hx_0I56IZvdiPEwpl-23" value="" style="strokeWidth=2;dashed=0;align=center;fontSize=8;shape=rect;fillColor=#fffbc0;strokeColor=#000000;" vertex="1" parent="1">
          <mxGeometry x="-191" y="-103" width="26" height="18" as="geometry" />
        </mxCell>
        <mxCell id="ph_Hx_0I56IZvdiPEwpl-24" value="" style="strokeWidth=2;dashed=0;align=center;fontSize=8;shape=rect;fillColor=#fffbc0;strokeColor=#000000;" vertex="1" parent="1">
          <mxGeometry x="-97" y="-103" width="26" height="18" as="geometry" />
        </mxCell>
        <mxCell id="ph_Hx_0I56IZvdiPEwpl-25" value="" style="strokeWidth=2;dashed=0;align=center;fontSize=8;shape=rect;fillColor=#fffbc0;strokeColor=#000000;" vertex="1" parent="1">
          <mxGeometry x="-144" y="-85" width="26" height="18" as="geometry" />
        </mxCell>
        <mxCell id="ph_Hx_0I56IZvdiPEwpl-35" value="&lt;b&gt;Rabbit MQ&lt;/b&gt;" style="text;strokeColor=none;align=center;fillColor=none;html=1;verticalAlign=middle;whiteSpace=wrap;rounded=0;" vertex="1" parent="1">
          <mxGeometry x="-162.5" y="-127" width="63" height="30" as="geometry" />
        </mxCell>
        <mxCell id="ph_Hx_0I56IZvdiPEwpl-45" style="edgeStyle=orthogonalEdgeStyle;rounded=0;orthogonalLoop=1;jettySize=auto;html=1;" edge="1" parent="1" source="ph_Hx_0I56IZvdiPEwpl-36" target="ph_Hx_0I56IZvdiPEwpl-43">
          <mxGeometry relative="1" as="geometry" />
        </mxCell>
        <mxCell id="ph_Hx_0I56IZvdiPEwpl-36" value="" style="outlineConnect=0;dashed=0;verticalLabelPosition=bottom;verticalAlign=top;align=center;html=1;shape=mxgraph.aws3.cache_node;fillColor=#2E73B8;gradientColor=none;" vertex="1" parent="1">
          <mxGeometry x="-562" y="-143.5" width="60" height="63" as="geometry" />
        </mxCell>
        <mxCell id="ph_Hx_0I56IZvdiPEwpl-43" value="" style="image;html=1;image=img/lib/clip_art/computers/Database_128x128.png" vertex="1" parent="1">
          <mxGeometry x="-572" y="7" width="80" height="80" as="geometry" />
        </mxCell>
        <mxCell id="ph_Hx_0I56IZvdiPEwpl-47" style="edgeStyle=orthogonalEdgeStyle;rounded=0;orthogonalLoop=1;jettySize=auto;html=1;entryX=1;entryY=0.5;entryDx=0;entryDy=0;entryPerimeter=0;" edge="1" parent="1" source="ph_Hx_0I56IZvdiPEwpl-20" target="ph_Hx_0I56IZvdiPEwpl-36">
          <mxGeometry relative="1" as="geometry" />
        </mxCell>
        <mxCell id="ph_Hx_0I56IZvdiPEwpl-48" value="&lt;b&gt;Database&lt;/b&gt;" style="text;strokeColor=none;align=center;fillColor=none;html=1;verticalAlign=middle;whiteSpace=wrap;rounded=0;" vertex="1" parent="1">
          <mxGeometry x="-572" y="92" width="88" height="30" as="geometry" />
        </mxCell>
      </root>
    </mxGraphModel>
  </diagram>
</mxfile>
